# xmcd
#
# Track frame offsets:
#	150
#	20130
#	38397
#	56297
#	78800
#	101557
#	121990
#	143862
#	163087
#	181782
#
# Disc length: 2700 seconds
#
# Revision: 1
# Processed by: cddbd v1.5.2PL0 Copyright (c) Steve Scherf et al.
# Submitted via: EasyCDDAExtractor 16.0.9.1
#
DISCID=730a8a0a
DTITLE=Various Artist - KH30: Tình Ca Vũ Tuấn Đức
DYEAR=1995
DGENRE=Pop
TTITLE0=Khánh Hà - Tình Đã Vụt Bay
TTITLE1=Tuấn Ngọc - Tóc Ngang Bờ Vai
TTITLE2=Khánh Hà - Nhớ Anh Chiều Nay
TTITLE3=Lan Anh - Chiều Nhớ
TTITLE4=Khánh Hà - Chưa Vơi Sầu Đau
TTITLE5=Khánh Hà - All Alone
TTITLE6=Anh Tú - Xin Hãy Rời Xa
TTITLE7=Lưu Bích - Phút Chia Xa
TTITLE8=Tuấn Đức - Anh Mơ Về Em
TTITLE9=Khánh Hà - Tình Đã Đổi Thay
EXTD=
EXTT0=
EXTT1=
EXTT2=
EXTT3=
EXTT4=
EXTT5=
EXTT6=
EXTT7=
EXTT8=
EXTT9=
PLAYORDER=
